# xmcd
# 
# Track frame offsets:
#     150
#     12090
#     21805
#     31300
#     42185
#     53027
#     63430
#     75845
#     87957
#     103035
#     116125
#     126317
#     136532
#     148125
#     158375
#     169782
#     181495
#     192732
#     204487
#     213787
# 
# Disc length: 3012
# 
# Revision: 7
# Processed by: cddbd v1.5.2PL0 Copyright (c) Steve Scherf et al.
# Submitted via: fre:ac v1.0.31
# 
DISCID=080bc214
DTITLE=Various Artist - I Walk The Line
DYEAR=1994
DGENRE=Country
TTITLE0=Johnny Cash - I Walk The Line
TTITLE1=Benny Barnes - Poor Man's Riches
TTITLE2=Jeannie C. Riley - The Girl Most Likely
TTITLE3=Carl Belwe - Am I That Easy To Forget
TTITLE4=Roger Miller - King Of The Road
TTITLE5=Johnny Paycheck - A-11
TTITLE6=Red Simpson - Roll Truck Roll
TTITLE7=Johnny Cash - Give My Love To Rose
TTITLE8=T. Texas Tyler - Remember Me
TTITLE9=Leroy Van Dyke - The Auctioneer
TTITLE10=Dave Duddley - Six Days On The Road
TTITLE11=Floyd Tillman - Slippin' Around
TTITLE12=George Jones - Window Up Above
TTITLE13=Carl Perkins - Blue Suede Shoes
TTITLE14=Johnny Horton - All For The Love Of A Girl
TTITLE15=Floyd Cramer - Fancy Pants
TTITLE16=Johnny Cash - Big River
TTITLE17=Roger Miller - Little Green Apples
TTITLE18=Maddox Brothers and Rose - Sally Let Your Bangs Hang Down
TTITLE19=Slim Willet - Don't Let The Stars Get In Your Eyes
EXTD=YEAR: 1994
EXTT0=
EXTT1=
EXTT2=
EXTT3=
EXTT4=
EXTT5=
EXTT6=
EXTT7=
EXTT8=
EXTT9=
EXTT10=
EXTT11=
EXTT12=
EXTT13=
EXTT14=
EXTT15=
EXTT16=
EXTT17=
EXTT18=
EXTT19=
PLAYORDER=
